<svg width="315.7003242331314" height="308.69999999999993" viewBox="0 0 200 195.56520934836797"
    class="looka-1j8o68f">
    <defs id="SvgjsDefs1199"></defs>
    <g id="SvgjsG1200" featurekey="symbolFeature-0"
        transform="matrix(0.8898776267202948,0,0,0.8898776267202948,-7.986652039276024,-29.632920896249317)"
        fill="#0fc9f2">
        <path xmlns="http://www.w3.org/2000/svg"
            d="M150.1,64.5l-6.1-3.6l0.3,0.2l-24.1,18.9c-1.5,1.3-3.5,1.4-4.6,0.2c-1-1.2-0.7-3.2,0.9-4.5l22-20.9l-2.8-7l12.5-14.5  l3.1,13.9l-11,10.8l0.1,0.3l0.3,0.2l12.2-9.4l13.4,5.1L150.1,64.5z M150.2,67.8l-3-1.8c1.8,4.1,2.9,8.7,2.9,13.5  c0,18.4-14.9,33.3-33.3,33.3S83.4,97.9,83.4,79.5s14.9-33.3,33.3-33.3C123,46.2,129,48,134,51l-1.5-3.7l3.1-3.6  c-5.6-3-12-4.7-18.8-4.7c-22.3,0-40.4,18.1-40.4,40.4s18.1,40.4,40.4,40.4c22.3,0,40.4-18.1,40.4-40.4c0-5.1-0.9-9.9-2.7-14.4  L150.2,67.8z M132.8,73.7c0.7,1.8,1,3.8,1,5.8c0,9.5-7.7,17.1-17.1,17.1c-9.5,0-17.1-7.7-17.1-17.1s7.7-17.1,17.1-17.1  c2.8,0,5.5,0.7,7.8,1.9l5.4-5.1c-3.8-2.5-8.3-3.9-13.2-3.9c-13.4,0-24.2,10.9-24.2,24.2c0,13.4,10.9,24.2,24.2,24.2  s24.2-10.9,24.2-24.2c0-3.7-0.8-7.2-2.3-10.3L132.8,73.7z M122.1,82.1c-1.3,1.1-2.8,1.7-4.4,1.7c-1.6,0-3.1-0.6-4.1-1.8  c-2.1-2.4-1.6-6.1,1.1-8.4l2.3-2.1c-0.1,0-0.1,0-0.2,0c-4.5,0-8.1,3.6-8.1,8.1c0,4.5,3.6,8.1,8.1,8.1c4.3,0,7.8-3.3,8.1-7.6  L122.1,82.1z M152.3,47l1,1.6l8.5-6.8L152.3,47z"></path>
    </g>
    <g id="SvgjsG1201" featurekey="nameFeature-0"
        transform="matrix(2.4836392500346287,0,0,2.4836392500346287,-8.046995338818213,64.11661452941846)"
        fill="#0fc9f2">
        <path
            d="M16.28 30.759999999999998 l0 -1.24 c0 -0.2 0.16 -0.36 0.36 -0.36 l4.56 0 c0.2 0 0.36 0.16 0.36 0.36 l0 2.52 c0 5.88 -3.16 8.36 -9.12 8.36 c-5.56 0 -9.2 -2.2 -9.2 -8.36 l0 -10.52 c0 -5.92 3.24 -8.28 9.2 -8.28 c5.64 0 9.12 2.16 9.12 8.28 l0 0.84 c0 0.2 -0.16 0.36 -0.36 0.36 l-4.6 0 c-0.2 0 -0.36 -0.16 -0.36 -0.36 l0 -0.64 c0 -2.2 -1.64 -3.12 -3.6 -3.12 l-0.48 0 c-1.32 0 -2.2 0.36 -2.8 1.16 c-0.56 0.76 -0.76 1.76 -0.76 3.08 l0 7.92 c0 3.48 1.96 4.24 3.56 4.24 l0.48 0 c2.52 0 3.56 -1.68 3.64 -4.24 z M12.36 15.719999999999999 c-4.28 0 -6.76 1.52 -6.76 6.4 l0 9.64 c0 4.44 2.28 6.08 6.76 6.08 c4.2 0 6.72 -1.52 6.72 -6.12 c0 -0.32 -0.48 -0.32 -0.48 0 c0 4.04 -2.2 5.68 -6.24 5.68 c-3.92 0 -6.32 -1.36 -6.32 -5.64 l0 -9.64 c0 -4.16 1.96 -5.96 6.32 -5.96 c5.68 0 5.88 3.6 5.88 4 c0 0.36 0.56 0.4 0.56 0 c0 -3.32 -3.36 -4.44 -6.44 -4.44 z M44.069 29.560000000000002 c-0.56 1.16 -1.36 2.04 -2.48 2.56 l3.36 7.4 c0.12 0.24 -0.04 0.48 -0.28 0.48 l-4.92 0 c-0.16 0 -0.24 -0.08 -0.28 -0.2 l-3.12 -6.8 l-2.04 0 l0 6.64 c0 0.2 -0.16 0.36 -0.36 0.36 l-4.6 0 c-0.16 0 -0.28 -0.16 -0.28 -0.36 l0 -25.68 c0 -0.2 0.12 -0.36 0.28 -0.36 l8.32 0 c4.44 0 7.12 2.52 7.12 7.2 l0 5.04 c0 1.4 -0.24 2.72 -0.72 3.72 z M39.549 24.6 l0 -2.6 c0 -2.8 -1.04 -3.08 -4.08 -3.08 l-1.16 0 l0 8.84 l1.16 0 c2.52 0 4 -0.04 4.08 -3.16 z M31.989 37.56 l0 -6.84 l5.76 0 l3.36 6.92 c0.08 0.2 0.56 0.12 0.44 -0.24 l-3.36 -6.8 c3.12 -0.44 4.2 -2.08 4.2 -5.04 l0 -5 c0 -4.4 -4 -4.76 -5.24 -4.76 l-5.4 0 c-0.08 0 -0.24 0.12 -0.24 0.24 l0 21.52 c0 0.28 0.48 0.28 0.48 0 z M41.909000000000006 20.56 l0 5 c0 4.08 -2.6 4.64 -5.12 4.64 l-4.8 0 l0 -13.88 l5.16 0 c4.32 0 4.76 2.92 4.76 4.24 z M52.938 40 c-0.2 0 -0.32 -0.16 -0.32 -0.36 l0 -25.68 c0 -0.2 0.12 -0.36 0.32 -0.36 l4.56 0 c0.2 0 0.36 0.16 0.36 0.36 l0 25.68 c0 0.2 -0.16 0.36 -0.36 0.36 l-4.56 0 z M55.018 16 l0 21.56 c0 0.36 0.44 0.36 0.44 0 l0 -21.56 c0 -0.28 -0.44 -0.28 -0.44 0 z M78.48700000000001 30.759999999999998 l0 -1.24 c0 -0.2 0.16 -0.36 0.36 -0.36 l4.56 0 c0.2 0 0.36 0.16 0.36 0.36 l0 2.52 c0 5.88 -3.16 8.36 -9.12 8.36 c-5.56 0 -9.2 -2.2 -9.2 -8.36 l0 -10.52 c0 -5.92 3.24 -8.28 9.2 -8.28 c5.64 0 9.12 2.16 9.12 8.28 l0 0.84 c0 0.2 -0.16 0.36 -0.36 0.36 l-4.6 0 c-0.2 0 -0.36 -0.16 -0.36 -0.36 l0 -0.64 c0 -2.2 -1.64 -3.12 -3.6 -3.12 l-0.48 0 c-1.32 0 -2.2 0.36 -2.8 1.16 c-0.56 0.76 -0.76 1.76 -0.76 3.08 l0 7.92 c0 3.48 1.96 4.24 3.56 4.24 l0.48 0 c2.52 0 3.56 -1.68 3.64 -4.24 z M74.56700000000001 15.719999999999999 c-4.28 0 -6.76 1.52 -6.76 6.4 l0 9.64 c0 4.44 2.28 6.08 6.76 6.08 c4.2 0 6.72 -1.52 6.72 -6.12 c0 -0.32 -0.48 -0.32 -0.48 0 c0 4.04 -2.2 5.68 -6.24 5.68 c-3.92 0 -6.32 -1.36 -6.32 -5.64 l0 -9.64 c0 -4.16 1.96 -5.96 6.32 -5.96 c5.68 0 5.88 3.6 5.88 4 c0 0.36 0.56 0.4 0.56 0 c0 -3.32 -3.36 -4.44 -6.44 -4.44 z"></path>
    </g>
    <g id="SvgjsG1202" featurekey="sloganFeature-0"
        transform="matrix(1.4076450730858505,0,0,1.4076450730858505,19.943723092149902,167.15889912547746)"
        fill="#0fc9f2">
        <path
            d="M4.1 20.18 c-0.65334 0 -1.2335 -0.086738 -1.7401 -0.26008 s-0.93332 -0.45 -1.28 -0.83 s-0.60332 -0.87666 -0.76998 -1.49 s-0.23666 -1.3533 -0.21 -2.22 l1.2 0 c0 0.42666 0.02 0.87 0.06 1.33 s0.14666 0.88 0.32 1.26 s0.43668 0.69 0.79002 0.93 s0.84334 0.36 1.47 0.36 c0.53334 0 0.98668 -0.08 1.36 -0.24 s0.67668 -0.37334 0.91002 -0.64 s0.39668 -0.58 0.49002 -0.94 s0.14 -0.73334 0.14 -1.12 c0 -0.45334 -0.08334 -0.85 -0.25 -1.19 s-0.38666 -0.64334 -0.66 -0.91 s-0.59334 -0.50332 -0.96 -0.70998 s-0.75 -0.39 -1.15 -0.55 c-0.64 -0.25334 -1.2 -0.50334 -1.68 -0.75 s-0.87334 -0.52332 -1.18 -0.82998 s-0.53666 -0.66332 -0.69 -1.07 s-0.23 -0.90332 -0.23 -1.49 c0 -1.3333 0.35 -2.3266 1.05 -2.98 s1.7033 -0.98 3.01 -0.98 c1.1333 0 2.03 0.33 2.69 0.99 s0.99 1.65 0.99 2.97 l0 1.1 l-1.12 0 l0 -1.2 c0 -0.41334 -0.05 -0.79668 -0.15 -1.15 s-0.25666 -0.66334 -0.47 -0.93 s-0.48334 -0.47666 -0.81 -0.63 s-0.71666 -0.23 -1.17 -0.23 c-1.0667 0 -1.83 0.28 -2.29 0.84 s-0.67 1.3133 -0.63 2.26 c0.01334 0.41334 0.09 0.76668 0.23 1.06 s0.32666 0.55 0.56 0.77 s0.51334 0.41666 0.84 0.59 s0.69 0.34668 1.09 0.52002 c0.46666 0.2 0.93 0.41334 1.39 0.64 s0.89 0.50666 1.29 0.84 c0.4 0.34666 0.73 0.75 0.99 1.21 s0.39 1.03 0.39 1.71 c0 1.32 -0.33666 2.31 -1.01 2.97 s-1.61 0.99 -2.81 0.99 z M11.178500000000001 20 l0 -15 l1.08 0 l0 13.92 l5.1 0 l0 1.08 l-6.18 0 z M23.777 20.18 c-2.52 0 -3.78 -1.32 -3.78 -3.96 l0 -7.4 c0 -1.3333 0.31666 -2.3266 0.95 -2.98 s1.6567 -0.98 3.07 -0.98 c1.2933 0 2.25 0.33 2.87 0.99 s0.93 1.6367 0.93 2.93 l0 7.44 c0 0.66666 -0.07 1.2467 -0.21 1.74 s-0.37 0.90668 -0.69 1.24 s-0.73666 0.58 -1.25 0.74 s-1.1433 0.24 -1.89 0.24 z M26.756999999999998 8.76 c0 -0.33334 -0.04664 -0.67338 -0.13998 -1.02 s-0.24668 -0.66332 -0.46002 -0.94998 s-0.49668 -0.52 -0.85002 -0.7 s-0.79 -0.27 -1.31 -0.27 c-0.57334 0 -1.05 0.08 -1.43 0.24 s-0.68 0.38334 -0.9 0.67 s-0.37666 0.62332 -0.47 1.01 s-0.14 0.80666 -0.14 1.26 l0 7.1 c0 0.34666 0.04 0.7 0.12 1.06 s0.22334 0.69 0.43 0.99 s0.48666 0.54666 0.84 0.74 s0.79668 0.29 1.33 0.29 c0.57334 0 1.05 -0.07666 1.43 -0.23 s0.68334 -0.36334 0.91 -0.63 s0.39 -0.58332 0.49 -0.94998 s0.15 -0.76332 0.15 -1.19 l0 -7.42 z M35.2955 20.18 c-1.2667 0 -2.2134 -0.33334 -2.84 -1 s-0.94 -1.6533 -0.94 -2.96 l0 -7.4 c0 -1.3333 0.31334 -2.3266 0.94 -2.98 s1.64 -0.98 3.04 -0.98 c1.32 0 2.2866 0.33 2.9 0.99 s0.92 1.6367 0.92 2.93 l0 1.08 l-1.08 0 l0 -1.28 c0 -0.33334 -0.04 -0.67 -0.12 -1.01 s-0.22334 -0.65 -0.43 -0.93 s-0.49 -0.50666 -0.85 -0.68 s-0.82 -0.26 -1.38 -0.26 s-1.0233 0.07666 -1.39 0.23 s-0.66 0.37 -0.88 0.65 s-0.37666 0.61 -0.47 0.99 s-0.14 0.79666 -0.14 1.25 l0 7.48 c0 0.46666 0.04666 0.88332 0.14 1.25 s0.25 0.67666 0.47 0.93 s0.50666 0.44668 0.86 0.58002 s0.78334 0.2 1.29 0.2 c0.56 0 1.0267 -0.07 1.4 -0.21 s0.67334 -0.33666 0.9 -0.59 s0.39 -0.56 0.49 -0.92 s0.15 -0.75334 0.15 -1.18 l0 -2.94 l-3.14 -0.02 l0 -0.98 l4.18 0.02 l0 3.78 c0 1.32 -0.30666 2.31 -0.92 2.97 s-1.6467 0.99 -3.1 0.99 z M50.374 20 l-1.1 -4.42 l-4.88 0 l-1.1 4.42 l-1 0 l4.14 -15 l0.86 0 l4.12 15 l-1.04 0 z M46.894000000000005 5.9399999999999995 l-2.26 8.68 l4.38 0 z M61.6325 20 l-5.8 -12.88 l0 12.88 l-1.1 0 l0 -15 l1.18 0 l5.8 12.3 l0.14 -12.3 l1.08 0 l0 15 l-1.3 0 z M76.7495 6.1 l0 13.9 l-1.16 0 l0 -13.9 l-3.26 0 l0 -1.1 l7.68 0 l0 1.1 l-3.26 0 z M83.24799999999999 20 l0 -15 l7.36 0 l0 1.16 l-6.32 0 l0 5.7 l6.26 0 l0 0.92 l-6.26 0 l0 6.06 l6.46 0 l0 1.16 l-7.5 0 z M101.64649999999999 20 l-3.36 -7.36 l-3.34 7.36 l-1.38 0 l3.64 -7.5 l-3.64 -7.5 l1.38 0 l3.34 7.36 l3.36 -7.36 l1.36 0 l-3.64 7.5 l3.64 7.5 l-1.36 0 z M110.445 6.1 l0 13.9 l-1.16 0 l0 -13.9 l-3.26 0 l0 -1.1 l7.68 0 l0 1.1 l-3.26 0 z"></path>
    </g>
</svg>